<?xml version="1.0" standalone="no"?>
<!DOCTYPE svg PUBLIC "-//W3C//DTD SVG 20010904//EN"
 "http://www.w3.org/TR/2001/REC-SVG-20010904/DTD/svg10.dtd">
<svg version="1.0" xmlns="http://www.w3.org/2000/svg"
 width="366.000000pt" height="368.000000pt" viewBox="0 0 366.000000 368.000000"
 preserveAspectRatio="xMidYMid meet">

<g transform="translate(0.000000,368.000000) scale(0.100000,-0.100000)"
fill="#000000" stroke="none">
<path d="M1750 3480 c-121 -26 -1147 -284 -1255 -315 -92 -27 -122 -42 -108
-56 4 -4 160 -46 345 -92 l337 -84 98 23 c233 57 503 80 753 64 260 -17 279
-27 55 -27 -303 -1 -541 -36 -797 -116 l-103 -33 -3 -59 c-2 -33 -1 -79 3
-102 8 -52 11 -53 159 -18 397 94 839 92 1232 -5 109 -27 120 -28 132 -13 8
12 12 59 12 149 l0 132 33 11 c54 17 235 61 251 61 14 0 16 -30 16 -259 0
-163 -4 -262 -10 -266 -5 -3 -10 -31 -10 -60 0 -49 2 -55 24 -61 49 -12 61 -2
64 49 2 32 -2 57 -12 73 -14 19 -16 64 -16 279 0 295 -16 260 130 295 136 34
220 60 220 70 0 5 -24 17 -52 28 -86 32 -1390 357 -1410 351 -2 0 -41 -9 -88
-19z"/>
<path d="M1040 1846 l0 -496 100 0 100 0 0 490 0 490 -54 0 c-29 0 -74 3 -100
6 l-46 7 0 -497z"/>
<path d="M2657 2334 c-4 -4 -7 -227 -7 -496 l0 -488 105 0 105 0 0 188 0 188
34 33 c23 22 47 34 75 38 36 5 44 2 76 -30 l35 -35 0 -191 0 -191 106 0 107 0
-7 218 c-6 174 -11 225 -25 257 -52 118 -230 162 -350 87 l-51 -31 -2 227 -3
227 -95 3 c-53 1 -99 0 -103 -4z"/>
<path d="M417 2293 c-4 -3 -7 -217 -7 -475 l0 -468 110 0 110 0 0 190 0 190
155 0 155 0 0 95 0 95 -155 0 -155 0 0 95 0 95 165 0 165 0 0 95 0 95 -268 0
c-148 0 -272 -3 -275 -7z"/>
<path d="M1508 1936 c-76 -28 -150 -111 -175 -195 -34 -118 4 -263 89 -335 89
-76 237 -89 324 -27 25 17 47 31 49 31 3 0 5 -13 5 -30 l0 -30 100 0 100 0 0
295 0 295 -84 0 c-98 0 -116 -5 -116 -32 0 -11 -3 -18 -7 -16 -109 56 -212 72
-285 44z m246 -186 c66 -58 71 -145 11 -204 -57 -57 -143 -55 -200 4 -27 28
-30 38 -30 96 0 63 2 67 37 100 33 30 44 34 93 34 46 0 59 -4 89 -30z"/>
<path d="M2260 1937 c-95 -32 -133 -76 -138 -163 -4 -59 -3 -63 32 -102 23
-25 68 -55 121 -81 72 -35 85 -45 85 -66 0 -52 -67 -56 -155 -10 -25 14 -48
25 -50 25 -2 0 -20 -28 -41 -62 l-37 -61 27 -23 c68 -59 271 -72 370 -24 61
29 96 87 96 159 0 93 -44 143 -171 190 -75 27 -97 46 -85 76 5 15 16 16 74 12
37 -3 78 -8 92 -12 23 -6 28 -1 53 51 17 34 25 60 19 66 -32 32 -221 48 -292
25z"/>
<path d="M430 1234 c-199 -54 -332 -238 -333 -464 -1 -166 57 -294 178 -393
78 -63 149 -89 256 -95 189 -10 345 80 419 241 24 52 29 80 35 180 l6 117
-220 0 -221 0 0 -85 0 -85 110 0 c121 0 122 -1 96 -63 -17 -43 -76 -93 -123
-106 -59 -17 -104 -13 -160 13 -112 52 -174 203 -144 347 15 68 69 151 123
186 36 24 52 28 112 28 79 -1 113 -14 177 -72 l40 -36 49 54 c75 84 79 94 45
129 -15 16 -58 45 -94 64 -106 55 -238 70 -351 40z"/>
<path d="M1367 876 c-16 -9 -46 -30 -68 -47 l-39 -31 0 41 0 41 -100 0 -100 0
0 -295 0 -295 100 0 100 0 0 160 c0 171 7 207 50 245 17 15 36 20 79 19 31 0
66 -4 78 -8 20 -7 26 0 62 73 l41 80 -22 12 c-37 20 -149 23 -181 5z"/>
<path d="M1784 876 c-92 -29 -181 -120 -205 -210 -15 -55 -7 -163 15 -209 25
-51 93 -120 147 -149 38 -20 58 -23 154 -23 94 0 117 3 156 23 50 25 129 92
129 111 0 6 -29 26 -65 43 -54 27 -69 30 -83 20 -65 -46 -150 -60 -201 -33
-26 14 -61 68 -61 94 0 16 17 17 215 17 l215 0 0 25 c0 54 -23 133 -52 176
-35 52 -104 103 -163 118 -53 14 -150 13 -201 -3z m187 -145 c53 -54 43 -61
-81 -61 -124 0 -134 7 -81 61 25 25 37 29 81 29 44 0 56 -4 81 -29z"/>
<path d="M2443 872 c-102 -36 -171 -114 -199 -221 -34 -136 31 -270 169 -343
36 -20 57 -23 152 -23 96 0 116 3 155 24 41 21 130 97 130 111 0 3 -31 21 -68
39 l-69 33 -39 -25 c-37 -24 -73 -32 -137 -28 -38 1 -97 60 -97 95 l0 26 216
0 215 0 -6 48 c-17 125 -75 215 -164 255 -65 28 -191 33 -258 9z m191 -134
c13 -13 27 -33 31 -45 6 -23 6 -23 -104 -23 -103 0 -111 1 -111 19 0 11 14 31
31 45 41 35 116 37 153 4z"/>
<path d="M3225 870 c-22 -12 -47 -28 -56 -36 -23 -21 -29 -17 -29 16 l0 30
-100 0 -100 0 0 -295 0 -295 100 0 100 0 0 178 c0 159 2 180 20 210 43 70 139
80 184 19 19 -26 21 -44 24 -218 l3 -189 101 0 100 0 -3 223 c-4 220 -4 222
-31 268 -37 64 -108 101 -202 106 -59 4 -78 1 -111 -17z"/>
</g>
</svg>
